<svg width="949" height="1232" viewBox="0 0 949 1232" fill="none" xmlns="http://www.w3.org/2000/svg">
<ellipse cx="197" cy="195.5" rx="197" ry="195.5" fill="#FFAB55"/>
<path d="M936 827C936 950.16 836.607 1050 714 1050C591.393 1050 492 950.16 492 827C492 703.84 591.393 604 714 604C836.607 604 936 703.84 936 827Z" fill="#059C6D"/>
<path d="M628.482 630.978L884.06 1082.89L329.202 1055.22L628.482 630.978Z" fill="#1C3E6F"/>
<rect x="168" y="234" width="494" height="917" rx="48" fill="white"/>
<path d="M662 315H168V805H662V315Z" fill="white"/>
<path d="M581.791 585.781H576.732L568.548 484.897H573.607L581.791 585.781Z" fill="#FF6E00"/>
<path d="M574.191 492.086L569.713 499.252L569.426 495.71L573.905 488.544L574.191 492.086Z" fill="white"/>
<path d="M574.915 501.009L570.437 508.174L570.149 504.632L574.628 497.467L574.915 501.009Z" fill="white"/>
<path d="M575.639 509.931L571.161 517.096L570.873 513.554L575.352 506.389L575.639 509.931Z" fill="white"/>
<path d="M576.363 518.853L571.884 526.018L571.597 522.476L576.075 515.311L576.363 518.853Z" fill="white"/>
<path d="M577.086 527.775L572.608 534.939L572.321 531.398L576.799 524.233L577.086 527.775Z" fill="white"/>
<path d="M577.81 536.697L573.332 543.861L573.044 540.321L577.523 533.156L577.81 536.697Z" fill="white"/>
<path d="M578.534 545.62L574.056 552.783L573.768 549.243L578.247 542.078L578.534 545.62Z" fill="white"/>
<path d="M579.258 554.541L574.779 561.706L574.492 558.165L578.97 551L579.258 554.541Z" fill="white"/>
<path d="M579.982 563.463L575.503 570.628L575.216 567.086L579.694 559.922L579.982 563.463Z" fill="white"/>
<path d="M580.705 572.385L576.226 579.55L575.94 576.008L580.418 568.844L580.705 572.385Z" fill="white"/>
<path d="M607.089 585.781L598.728 689.661C598.263 695.397 594.837 699.726 590.762 699.726H563.468C559.393 699.726 555.967 695.397 555.502 689.661L547.092 585.781H607.089Z" fill="#A9D8D5"/>
<path d="M581.43 581.307L578.633 585.781H576.733L576.663 584.93L581.142 577.766L581.43 581.307Z" fill="white"/>
<path d="M608.515 569.012L598.728 689.661C598.263 695.397 594.837 699.726 590.762 699.726H563.467C559.393 699.726 555.966 695.396 555.501 689.661L545.714 569.012H608.515Z" stroke="#A9D8D5" stroke-width="5" stroke-miterlimit="10"/>
<path d="M569.983 631.911L596.043 605.419C599.385 615.748 597.474 628.009 591.051 634.539C584.627 641.069 575.818 639.706 569.983 631.911Z" fill="#F1B104"/>
<path d="M586.586 634.464L584.267 621.088L592.457 628.476C591.71 629.816 590.822 631.029 589.8 632.068C588.789 633.096 587.708 633.892 586.586 634.464Z" fill="#FF6E00"/>
<path d="M585.271 619.209L595.381 616.029C595.413 619.648 594.778 623.2 593.511 626.281L585.271 619.209Z" fill="#FF6E00"/>
<path d="M577.314 634.434L582.707 621.815L584.801 635.178C582.326 635.911 579.735 635.637 577.314 634.434Z" fill="#FF6E00"/>
<path d="M575.132 633.059C574.02 632.2 572.968 631.126 572.011 629.849L581.023 620.687L575.132 633.059Z" fill="#FF6E00"/>
<path d="M584.91 616.736L594.014 607.48C594.568 609.19 594.951 610.964 595.167 612.752L584.91 616.736Z" fill="#FF6E00"/>
<path d="M606.997 562.117H547.233C544.545 562.117 542.366 565.204 542.366 569.012H611.863C611.863 565.204 609.684 562.117 606.997 562.117Z" stroke="#573240" stroke-width="5" stroke-miterlimit="10" stroke-linecap="round"/>
<path d="M607.137 562.117C604.243 544.637 593.239 532.28 580.569 532.28H573.66C560.99 532.28 549.986 544.637 547.092 562.117H607.137V562.117Z" stroke="#573240" stroke-width="5" stroke-miterlimit="10" stroke-linecap="round"/>
<path d="M586.124 692.431H575.713C574.413 692.431 573.358 690.936 573.358 689.093V674.341C573.358 672.498 574.413 671.004 575.713 671.004H586.124C587.425 671.004 588.479 672.498 588.479 674.341V689.093C588.479 690.936 587.425 692.431 586.124 692.431Z" fill="#E0F1F0"/>
<path d="M594.47 665.876H586.277C584.976 665.876 583.922 664.382 583.922 662.539V650.93C583.922 649.087 584.976 647.592 586.277 647.592H594.47C595.771 647.592 596.825 649.087 596.825 650.93V662.539C596.825 664.382 595.771 665.876 594.47 665.876Z" fill="#E0F1F0"/>
<path d="M566.649 674.799H558.457C557.156 674.799 556.101 673.305 556.101 671.462V659.853C556.101 658.01 557.156 656.516 558.457 656.516H566.649C567.95 656.516 569.005 658.01 569.005 659.853V671.462C569.005 673.305 567.95 674.799 566.649 674.799Z" fill="#E0F1F0"/>
<path d="M572.174 620.814C572.945 620.814 573.57 619.928 573.57 618.836C573.57 617.743 572.945 616.857 572.174 616.857C571.403 616.857 570.778 617.743 570.778 618.836C570.778 619.928 571.403 620.814 572.174 620.814Z" stroke="white" stroke-width="5" stroke-miterlimit="10"/>
<path d="M564.829 649.764C565.6 649.764 566.225 648.878 566.225 647.785C566.225 646.692 565.6 645.807 564.829 645.807C564.058 645.807 563.433 646.692 563.433 647.785C563.433 648.878 564.058 649.764 564.829 649.764Z" stroke="white" stroke-width="5" stroke-miterlimit="10"/>
<path d="M561.457 604.528C562.548 604.528 563.433 603.275 563.433 601.728C563.433 600.182 562.548 598.928 561.457 598.928C560.365 598.928 559.481 600.182 559.481 601.728C559.481 603.275 560.365 604.528 561.457 604.528Z" stroke="white" stroke-width="5" stroke-miterlimit="10"/>
<path d="M595.068 633.376C596.159 633.376 597.044 632.122 597.044 630.576C597.044 629.03 596.159 627.776 595.068 627.776C593.977 627.776 593.092 629.03 593.092 630.576C593.092 632.122 593.977 633.376 595.068 633.376Z" stroke="white" stroke-width="5" stroke-miterlimit="10"/>
<path d="M579.024 651.005C579.652 651.005 580.16 650.284 580.16 649.395C580.16 648.506 579.652 647.785 579.024 647.785C578.397 647.785 577.888 648.506 577.888 649.395C577.888 650.284 578.397 651.005 579.024 651.005Z" stroke="white" stroke-width="5" stroke-miterlimit="10"/>
<path d="M597.81 637.262C598.22 637.262 598.551 636.792 598.551 636.212C598.551 635.632 598.22 635.162 597.81 635.162C597.401 635.162 597.069 635.632 597.069 636.212C597.069 636.792 597.401 637.262 597.81 637.262Z" stroke="white" stroke-width="5" stroke-miterlimit="10"/>
<path d="M590.173 602.721C590.855 602.721 591.408 601.937 591.408 600.971C591.408 600.004 590.855 599.221 590.173 599.221C589.491 599.221 588.938 600.004 588.938 600.971C588.938 601.937 589.491 602.721 590.173 602.721Z" stroke="white" stroke-width="5" stroke-miterlimit="10"/>
<path d="M557.723 608.607C558.132 608.607 558.464 608.137 558.464 607.557C558.464 606.977 558.132 606.507 557.723 606.507C557.314 606.507 556.982 606.977 556.982 607.557C556.982 608.137 557.314 608.607 557.723 608.607Z" stroke="white" stroke-width="5" stroke-miterlimit="10"/>
<path d="M558.464 641.319C558.873 641.319 559.205 640.848 559.205 640.269C559.205 639.689 558.873 639.219 558.464 639.219C558.055 639.219 557.723 639.689 557.723 640.269C557.723 640.848 558.055 641.319 558.464 641.319Z" stroke="white" stroke-width="5" stroke-miterlimit="10"/>
<path d="M463.635 431.499V456.134H456.019V431.153H418.78V456.134H411.164V431.499L419.085 420.274H455.713L463.635 431.499Z" fill="#573240"/>
<path d="M460.572 456.135V431.498L452.651 420.273H416.023L408.102 431.498V456.135H377.634L357.874 699.727H490.73V456.135H460.572ZM452.957 456.135H415.717V431.152H452.957V456.135Z" fill="#F1B104"/>
<path d="M514.541 699.726H490.73V456.134H494.781L514.541 699.726Z" fill="#573240"/>
<path d="M456.255 536.722C456.255 555.09 448.25 570.671 437.157 576.135V546.27C437.157 543.557 438.103 541.012 439.697 539.297C441.372 537.495 442.48 534.353 442.48 530.779C442.48 525.185 439.765 520.654 436.417 520.654C433.069 520.654 430.354 525.185 430.354 530.779C430.354 534.353 431.462 537.495 433.137 539.297C434.73 541.012 435.677 543.557 435.677 546.27V576.797C433.361 577.728 430.927 578.224 428.414 578.224C425.919 578.224 423.502 577.735 421.201 576.817V550.236C421.201 547.523 422.147 544.978 423.741 543.263C424.672 542.262 425.428 540.844 425.916 539.169C426.306 537.834 426.524 536.333 426.524 534.747V521.703C426.524 521.123 426.193 520.654 425.784 520.654H425.783C425.375 520.654 425.043 521.123 425.043 521.703V535.844C425.043 536.596 424.829 537.277 424.481 537.769C424.133 538.262 423.653 538.567 423.122 538.567C422.061 538.567 421.201 537.348 421.201 535.844V521.703C421.201 521.413 421.118 521.151 420.984 520.961C420.85 520.772 420.665 520.654 420.461 520.654C420.052 520.654 419.721 521.123 419.721 521.703V535.844C419.721 537.348 418.861 538.567 417.8 538.567H417.799C416.738 538.567 415.877 537.348 415.877 535.844V521.703C415.877 521.413 415.794 521.151 415.661 520.961C415.527 520.772 415.342 520.654 415.137 520.654C414.728 520.654 414.397 521.123 414.397 521.703V534.747C414.397 536.333 414.616 537.834 415.005 539.169C415.493 540.844 416.249 542.262 417.18 543.263C418.774 544.978 419.721 547.523 419.721 550.236V576.16C408.602 570.717 400.573 555.117 400.573 536.722C400.573 513.801 413.038 495.219 428.414 495.219C443.79 495.219 456.255 513.801 456.255 536.722Z" fill="white"/>
<path d="M408.101 431.359H460.572" stroke="#573240" stroke-width="5" stroke-miterlimit="10" stroke-linecap="round"/>
<path d="M527.141 657.408L516.414 626.877C513.906 619.741 508.765 615.231 503.14 615.231H433.418C427.792 615.231 422.651 619.741 420.144 626.877L409.416 657.408H527.141Z" fill="#F1B104" stroke="#573240" stroke-width="5" stroke-miterlimit="10" stroke-linecap="round"/>
<path d="M506.678 666.997C501.122 675.401 493.941 678.661 488.692 671.693C483.443 664.724 485.271 654.359 490.827 645.955C496.383 637.551 505.404 633.983 509.781 639.794C514.159 645.604 512.234 658.593 506.678 666.997Z" fill="white"/>
<path d="M503.861 660.357C504.584 655.13 502.18 650.063 498.491 649.04C494.803 648.016 491.227 651.423 490.505 656.65C489.782 661.876 492.187 666.943 495.875 667.966C499.563 668.99 503.139 665.583 503.861 660.357Z" fill="#F1B104"/>
<path d="M568.787 650.323C570.761 659.224 569.526 667.703 563.966 670.178C558.406 672.654 553.972 666.699 551.998 657.798C550.024 648.896 551.838 638.455 556.474 636.39C561.111 634.326 566.813 641.421 568.787 650.323Z" fill="white"/>
<path d="M564.68 661.934C566.834 658.882 566.834 653.935 564.68 650.884C562.527 647.832 559.035 647.832 556.882 650.884C554.729 653.935 554.729 658.882 556.882 661.934C559.035 664.985 562.527 664.985 564.68 661.934Z" fill="#F1B104"/>
<path d="M461.858 668.288L437.844 649.528C441.865 643.043 448.962 641.352 454.882 645.976C460.801 650.6 463.581 660.009 461.858 668.288Z" fill="#FF6E00"/>
<path d="M452.915 654.288C452.496 655.364 450.609 656.959 450.609 656.959C450.609 656.959 450.554 653.847 450.973 652.77C451.392 651.693 452.166 651.16 452.702 651.579C453.239 651.998 453.334 653.211 452.915 654.288Z" stroke="#573240" stroke-width="4" stroke-miterlimit="10" stroke-linecap="round" stroke-linejoin="round"/>
<path d="M455.354 659.776C454.493 659.932 452.471 658.713 452.471 658.713C452.471 658.713 454.212 656.814 455.073 656.659C455.934 656.503 456.694 657.075 456.772 657.936C456.849 658.796 456.214 659.62 455.354 659.776Z" stroke="#573240" stroke-width="4" stroke-miterlimit="10" stroke-linecap="round" stroke-linejoin="round"/>
<path d="M446.396 652.778C446.762 653.893 448.569 655.665 448.569 655.665C448.569 655.665 448.773 652.565 448.406 651.45C448.039 650.336 447.292 649.73 446.737 650.096C446.182 650.463 446.029 651.664 446.396 652.778Z" stroke="#573240" stroke-width="4" stroke-miterlimit="10" stroke-linecap="round" stroke-linejoin="round"/>
<path d="M527.388 661.797L547.294 637.68C550.002 645.046 548.66 654.677 543.753 660.622C538.846 666.567 532 666.857 527.388 661.797Z" fill="#FF6E00"/>
<path d="M539.203 655.241C538.669 654.335 538.307 651.378 538.307 651.378C538.307 651.378 540.279 652.384 540.813 653.29C541.347 654.197 541.419 655.368 540.974 655.907C540.53 656.445 539.737 656.147 539.203 655.241Z" stroke="#573240" stroke-width="4" stroke-miterlimit="10" stroke-linecap="round" stroke-linejoin="round"/>
<path d="M534.932 656.451C535.126 655.3 536.576 653.145 536.576 653.145C536.576 653.145 537.178 656.021 536.984 657.171C536.79 658.322 536.174 659.094 535.607 658.895C535.041 658.696 534.738 657.602 534.932 656.451Z" stroke="#573240" stroke-width="4" stroke-miterlimit="10" stroke-linecap="round" stroke-linejoin="round"/>
<path d="M542.358 647.455C541.534 647.536 539.81 649.226 539.81 649.226C539.81 649.226 541.687 650.558 542.511 650.476C543.334 650.394 543.968 649.651 543.925 648.817C543.883 647.983 543.181 647.373 542.358 647.455Z" stroke="#573240" stroke-width="4" stroke-miterlimit="10" stroke-linecap="round" stroke-linejoin="round"/>
<path d="M492.675 662.324C492.675 662.324 485.037 657.362 485.385 642.677C485.734 627.992 494.994 623.302 496.725 627.894C497.863 630.912 496.528 634.664 492.82 636.605C488.62 638.803 486.122 640.639 486.729 647.639C487.278 653.964 489.344 658.745 492.675 662.324Z" fill="#A9D8D5"/>
<path d="M492.675 662.324C492.675 662.324 483.879 653.902 487.144 640.177C489.862 628.754 495.26 629.756 495.26 629.756" stroke="#573240" stroke-width="4" stroke-miterlimit="10" stroke-linecap="round" stroke-linejoin="round"/>
<path d="M488.544 635.807C489.11 634.673 489.616 632.786 489.349 630.556" stroke="#573240" stroke-width="4" stroke-miterlimit="10" stroke-linecap="round" stroke-linejoin="round"/>
<path d="M474.889 666.945C479.36 666.945 482.984 661.809 482.984 655.474C482.984 649.139 479.36 644.004 474.889 644.004C470.419 644.004 466.795 649.139 466.795 655.474C466.795 661.809 470.419 666.945 474.889 666.945Z" fill="#A9D8D5"/>
<path d="M476.101 651.073C476.023 651.923 475.086 653.637 475.086 653.637C475.086 653.637 474.491 651.638 474.57 650.789C474.648 649.94 475.055 649.315 475.478 649.394C475.901 649.472 476.18 650.225 476.101 651.073Z" stroke="#573240" stroke-width="4" stroke-miterlimit="10" stroke-linecap="round" stroke-linejoin="round"/>
<path d="M473.715 660.027C473.794 659.178 474.731 657.465 474.731 657.465C474.731 657.465 475.326 659.463 475.247 660.312C475.169 661.161 474.762 661.786 474.339 661.707C473.916 661.629 473.637 660.877 473.715 660.027Z" stroke="#573240" stroke-width="4" stroke-miterlimit="10" stroke-linecap="round" stroke-linejoin="round"/>
<path d="M471.749 653.86C472.348 653.971 473.558 655.3 473.558 655.3C473.558 655.3 472.147 656.142 471.548 656.03C470.949 655.919 470.508 655.343 470.564 654.744C470.619 654.144 471.15 653.749 471.749 653.86Z" stroke="#573240" stroke-width="4" stroke-miterlimit="10" stroke-linecap="round" stroke-linejoin="round"/>
<path d="M478.068 657.241C477.469 657.13 476.259 655.801 476.259 655.801C476.259 655.801 477.669 654.959 478.269 655.071C478.868 655.182 479.309 655.758 479.253 656.357C479.198 656.957 478.667 657.352 478.068 657.241Z" stroke="#573240" stroke-width="4" stroke-miterlimit="10" stroke-linecap="round" stroke-linejoin="round"/>
<path d="M420.52 664.948C423.175 664.948 425.328 661.897 425.328 658.134C425.328 654.371 423.175 651.32 420.52 651.32C417.864 651.32 415.711 654.371 415.711 658.134C415.711 661.897 417.864 664.948 420.52 664.948Z" fill="white"/>
<path d="M438.016 657.429C436.043 657.335 433.849 656.508 431.392 655.292C421.598 650.443 421.658 637.848 424.788 636.786C427.239 635.953 429.08 639.242 429.282 644.84C429.512 651.18 430.334 655.665 435.233 656.931C436.164 657.171 437.096 657.342 438.016 657.429Z" fill="#A9D8D5"/>
<path d="M439.399 657.458C436.616 657.675 433.409 656.874 430.27 653.752C425.111 648.621 425.324 639.2 425.324 639.2" stroke="#573240" stroke-width="4" stroke-miterlimit="10" stroke-linecap="round" stroke-linejoin="round"/>
<path d="M438.723 657.286C439.086 657.37 433.217 656.612 431.613 649.369C430.42 643.979 433.375 642.73 434.56 644.426C435.881 646.316 434.853 651.501 436.53 654.94C437.016 655.937 436.95 656.874 438.723 657.286Z" fill="#A9D8D5"/>
<path d="M433.488 646.021C433.488 646.021 432.625 655.171 439.399 657.457" stroke="#573240" stroke-width="4" stroke-miterlimit="10" stroke-linecap="round" stroke-linejoin="round"/>
<path d="M522.351 657.639C521.921 657.763 521.544 657.736 521.206 657.594C524.377 655.562 525.438 651.151 526.195 645.391C527.082 638.629 529.777 635.033 532.776 636.58C536.608 638.555 535.262 653.881 522.351 657.639Z" fill="#A9D8D5"/>
<path d="M510.56 659.668C514.088 660.155 520.323 659.428 524.441 655.855C531.208 649.982 531.219 639.445 531.219 639.445" stroke="#573240" stroke-width="4" stroke-miterlimit="10" stroke-linecap="round" stroke-linejoin="round"/>
<path d="M511.426 659.511C510.961 659.586 518.453 659.122 520.788 650.382C522.525 643.877 518.82 642.114 517.245 644.096C515.488 646.306 516.582 652.735 514.31 656.813C513.651 657.995 513.697 659.147 511.426 659.511Z" fill="#A9D8D5"/>
<path d="M518.542 646.135C518.542 646.135 519.264 657.406 510.56 659.668" stroke="#573240" stroke-width="4" stroke-miterlimit="10" stroke-linecap="round" stroke-linejoin="round"/>
<path d="M574.664 657.408L563.936 626.877C561.429 619.741 556.288 615.231 550.663 615.231H503.14C508.765 615.231 513.906 619.741 516.414 626.877L527.141 657.408H574.664Z" stroke="#573240" stroke-width="5" stroke-miterlimit="10" stroke-linecap="round"/>
<path d="M527.141 657.408L516.414 626.877C513.906 619.741 508.765 615.231 503.14 615.231H433.418C427.792 615.231 422.651 619.741 420.144 626.877L409.416 657.408H527.141Z" stroke="#573240" stroke-width="5" stroke-miterlimit="10" stroke-linecap="round"/>
<path d="M481.555 615.231H447.388V638.462H481.555V615.231Z" fill="#573240"/>
<path d="M527.141 657.549L516.413 688.081C513.906 695.216 508.765 699.727 503.14 699.727H433.417C427.792 699.727 422.651 695.216 420.144 688.081L409.416 657.549H527.141Z" fill="white"/>
<path d="M574.664 657.408L563.936 687.94C561.429 695.075 556.288 699.586 550.663 699.586H503.14C508.765 699.586 513.906 695.075 516.414 687.94L527.141 657.408H574.664Z" fill="white"/>
<path d="M574.664 657.408L563.936 687.939C561.429 695.075 556.288 699.586 550.662 699.586H433.417C427.792 699.586 422.651 695.075 420.144 687.939L409.416 657.408H574.664Z" fill="white"/>
<path d="M563.936 687.94C561.429 695.075 556.288 699.586 550.662 699.586H503.14C508.765 699.586 513.906 695.075 516.414 687.94L527.141 657.408" stroke="#573240" stroke-width="5" stroke-miterlimit="10" stroke-linecap="round"/>
<path d="M527.141 657.408L516.414 687.94C513.906 695.075 508.765 699.586 503.14 699.586H430.454" stroke="#573240" stroke-width="5" stroke-miterlimit="10" stroke-linecap="round"/>
<path d="M406.021 657.548H578.059" stroke="#573240" stroke-width="5" stroke-miterlimit="10" stroke-linecap="round"/>
<path d="M467.492 630.27H464.551V626.103C464.551 621.778 467.025 618.272 470.078 618.272H473.018V622.439C473.018 626.764 470.544 630.27 467.492 630.27Z" stroke="#A9D8D5" stroke-width="4" stroke-miterlimit="10"/>
<path d="M473.018 618.272L462.606 633.026" stroke="#A9D8D5" stroke-width="4" stroke-miterlimit="10"/>
<path d="M469.864 618.412V622.742H472.919" stroke="#A9D8D5" stroke-width="4" stroke-miterlimit="10"/>
<path d="M466.965 619.699V626.849H472.011" stroke="#A9D8D5" stroke-width="4" stroke-miterlimit="10"/>
<path d="M462.064 630.571H462.835V629.478C462.835 625.153 460.361 621.647 457.309 621.647H456.537V622.74C456.537 627.065 459.012 630.571 462.064 630.571Z" stroke="#A9D8D5" stroke-width="4" stroke-miterlimit="10"/>
<path d="M456.537 621.648L463.587 631.637" stroke="#A9D8D5" stroke-width="4" stroke-miterlimit="10"/>
<path d="M460.546 623.128V627.326H457.583" stroke="#A9D8D5" stroke-width="4" stroke-miterlimit="10"/>
<path d="M539.402 583.717L531.814 605.313C529.757 611.165 525.541 614.865 520.927 614.865H500.812C505.426 614.865 509.642 611.165 511.699 605.313L519.287 583.717H539.402Z" fill="#573240"/>
<path d="M519.288 583.717L518.481 586.013L511.7 605.313C509.643 611.165 505.427 614.865 500.813 614.865H471.991C467.377 614.865 463.161 611.165 461.104 605.313L454.323 586.013L453.516 583.717H519.288Z" fill="#FF6E00"/>
<path d="M519.287 583.717L518.101 587.128H454.734L453.515 583.717H519.287Z" fill="#573240"/>
<path d="M542.245 583.717L533.124 557.761C530.993 551.694 526.622 547.859 521.84 547.859H500.953C505.736 547.859 510.106 551.694 512.238 557.761L521.358 583.717H542.245Z" fill="#FCD4D0"/>
<path d="M521.358 583.717L512.238 557.761C510.106 551.694 505.736 547.859 500.953 547.859H471.077C466.295 547.859 461.924 551.694 459.793 557.761L450.672 583.717H521.358Z" fill="white"/>
<path d="M364.663 557.369L357.939 640.268H266.351L273.249 555.221H363.311C364.124 555.221 364.756 556.224 364.663 557.369Z" fill="#F6ACC1"/>
<path d="M350.837 555.221C349.75 555.221 348.836 556.376 348.712 557.905L348.017 566.472C347.475 573.157 343.481 578.203 338.733 578.203H265.96C260.375 578.203 256.037 571.309 256.675 563.448L257.176 557.275C257.271 556.105 257.97 555.221 258.802 555.221H350.837Z" fill="#FCD4D0"/>
<path d="M322.487 697.735C338.238 697.735 351.006 679.285 351.006 656.526C351.006 633.767 338.238 615.317 322.487 615.317C306.737 615.317 293.969 633.767 293.969 656.526C293.969 679.285 306.737 697.735 322.487 697.735Z" fill="#573240"/>
<path d="M317.449 615.317C301.698 615.317 288.929 633.767 288.929 656.526C288.929 679.286 301.698 697.735 317.449 697.735C333.2 697.735 345.967 679.286 345.967 656.526C345.967 633.767 333.2 615.317 317.449 615.317ZM317.449 670.706C312.146 670.706 307.848 664.495 307.848 656.834C307.848 649.173 312.146 642.961 317.449 642.961C322.75 642.961 327.049 649.173 327.049 656.834C327.049 664.495 322.75 670.706 317.449 670.706Z" fill="#A9D8D5"/>
<path d="M321.66 622.596H319.225C318.954 622.596 318.733 622.284 318.733 621.899V621.851C318.733 621.467 318.954 621.155 319.225 621.155H321.66C321.931 621.155 322.151 621.467 322.151 621.851V621.899C322.151 622.284 321.931 622.596 321.66 622.596Z" fill="white"/>
<path d="M325.583 637.339H323.149C322.877 637.339 322.657 637.027 322.657 636.642V636.595C322.657 636.21 322.877 635.898 323.149 635.898H325.583C325.855 635.898 326.075 636.21 326.075 636.595V636.642C326.075 637.027 325.855 637.339 325.583 637.339Z" fill="#573240"/>
<path d="M305.27 628.547L303.212 630.389C302.982 630.595 302.678 630.498 302.534 630.172L302.516 630.132C302.371 629.806 302.439 629.376 302.669 629.171L304.727 627.329C304.957 627.123 305.261 627.221 305.405 627.546L305.423 627.586C305.568 627.912 305.5 628.342 305.27 628.547Z" fill="white"/>
<path d="M336.975 635.567L335.646 638.457C335.498 638.78 335.193 638.871 334.966 638.661L334.938 638.635C334.71 638.425 334.646 637.993 334.794 637.671L336.122 634.78C336.27 634.458 336.575 634.366 336.803 634.576L336.831 634.603C337.058 634.812 337.123 635.244 336.975 635.567Z" fill="white"/>
<path d="M316.62 635.154L314.561 636.996C314.332 637.201 314.028 637.104 313.883 636.779L313.865 636.738C313.72 636.413 313.789 635.983 314.018 635.777L316.077 633.936C316.306 633.73 316.61 633.827 316.755 634.153L316.773 634.193C316.918 634.518 316.849 634.949 316.62 635.154Z" fill="white"/>
<path d="M311.429 625.58L310.01 622.777C309.852 622.465 309.902 622.029 310.123 621.805L310.151 621.777C310.371 621.553 310.678 621.625 310.837 621.937L312.256 624.74C312.414 625.053 312.364 625.488 312.143 625.713L312.116 625.74C311.895 625.965 311.588 625.893 311.429 625.58Z" fill="#573240"/>
<path d="M331.136 636.328L329.717 633.525C329.558 633.212 329.609 632.777 329.83 632.553L329.857 632.525C330.078 632.301 330.385 632.372 330.543 632.685L331.962 635.488C332.121 635.801 332.07 636.236 331.849 636.46L331.822 636.488C331.601 636.712 331.294 636.641 331.136 636.328Z" fill="#FF6E00"/>
<path d="M300.554 637.418L298.661 635.249C298.45 635.007 298.417 634.568 298.588 634.269L298.609 634.232C298.78 633.933 299.089 633.886 299.3 634.128L301.193 636.297C301.404 636.54 301.437 636.978 301.266 637.277L301.245 637.315C301.074 637.614 300.765 637.66 300.554 637.418Z" fill="#FF6E00"/>
<path d="M329.919 627.61L328.026 625.441C327.815 625.199 327.782 624.76 327.953 624.461L327.974 624.424C328.145 624.125 328.455 624.078 328.666 624.32L330.559 626.49C330.77 626.732 330.803 627.17 330.632 627.47L330.611 627.507C330.44 627.806 330.13 627.852 329.919 627.61Z" fill="white"/>
<path d="M307.664 636.58L308.078 633.181C308.125 632.802 308.379 632.547 308.647 632.613L308.68 632.621C308.948 632.686 309.127 633.047 309.081 633.426L308.666 636.825C308.62 637.204 308.366 637.459 308.098 637.393L308.065 637.385C307.797 637.32 307.618 636.959 307.664 636.58Z" fill="#F1B104"/>
<path d="M304.709 648.6L305.124 645.2C305.17 644.821 305.424 644.567 305.692 644.632L305.725 644.641C305.993 644.706 306.172 645.067 306.126 645.446L305.711 648.845C305.665 649.224 305.411 649.478 305.143 649.413L305.11 649.405C304.842 649.339 304.663 648.979 304.709 648.6Z" fill="#F1B104"/>
<path d="M315.645 628.348L317.557 626.213C317.771 625.975 318.08 626.027 318.248 626.329L318.269 626.367C318.437 626.669 318.4 627.107 318.187 627.346L316.275 629.481C316.062 629.719 315.752 629.667 315.584 629.364L315.563 629.327C315.395 629.025 315.432 628.587 315.645 628.348Z" fill="#FF6E00"/>
<path d="M323.285 629.924L323.699 626.524C323.745 626.145 324 625.891 324.268 625.956L324.301 625.965C324.568 626.03 324.748 626.391 324.701 626.77L324.287 630.169C324.241 630.548 323.986 630.802 323.719 630.737L323.686 630.729C323.418 630.663 323.239 630.303 323.285 629.924Z" fill="#F1B104"/>
<path d="M334.656 678.567L336.104 675.794C336.265 675.485 336.573 675.419 336.792 675.648L336.819 675.677C337.037 675.906 337.083 676.342 336.922 676.651L335.473 679.424C335.312 679.734 335.004 679.799 334.786 679.57L334.759 679.542C334.54 679.313 334.494 678.876 334.656 678.567Z" fill="white"/>
<path d="M325.091 673.308L326.539 670.535C326.701 670.226 327.009 670.161 327.227 670.389L327.254 670.418C327.472 670.647 327.518 671.083 327.357 671.392L325.909 674.165C325.747 674.474 325.439 674.54 325.221 674.311L325.194 674.282C324.975 674.053 324.929 673.617 325.091 673.308Z" fill="#573240"/>
<path d="M341.029 656.359L341.209 652.918C341.229 652.535 341.465 652.247 341.736 652.275L341.769 652.278C342.04 652.307 342.243 652.641 342.223 653.025L342.044 656.465C342.024 656.849 341.788 657.137 341.517 657.108L341.483 657.105C341.213 657.076 341.009 656.742 341.029 656.359Z" fill="white"/>
<path d="M327.607 645.528L327.786 642.088C327.806 641.704 328.042 641.416 328.313 641.444L328.347 641.448C328.617 641.476 328.821 641.811 328.801 642.194L328.621 645.635C328.601 646.018 328.365 646.306 328.094 646.278L328.061 646.274C327.79 646.246 327.587 645.912 327.607 645.528Z" fill="white"/>
<path d="M319.614 690.565L318.764 687.332C318.67 686.972 318.799 686.571 319.054 686.436L319.085 686.42C319.34 686.285 319.623 686.469 319.718 686.829L320.567 690.062C320.662 690.423 320.532 690.824 320.278 690.958L320.246 690.975C319.992 691.109 319.709 690.926 319.614 690.565Z" fill="white"/>
<path d="M330.53 665.356L330.71 661.915C330.73 661.532 330.966 661.244 331.236 661.272L331.27 661.275C331.541 661.304 331.744 661.638 331.724 662.022L331.544 665.462C331.524 665.846 331.288 666.134 331.018 666.105L330.984 666.102C330.713 666.073 330.51 665.739 330.53 665.356Z" fill="white"/>
<path d="M339.049 665.139L341.483 665.19C341.754 665.196 341.971 665.512 341.967 665.897L341.967 665.945C341.963 666.329 341.739 666.637 341.468 666.631L339.034 666.58C338.762 666.574 338.545 666.258 338.549 665.873L338.55 665.825C338.554 665.441 338.777 665.133 339.049 665.139Z" fill="#573240"/>
<path d="M315.542 676.863L317.976 676.914C318.248 676.92 318.465 677.236 318.461 677.621L318.46 677.669C318.456 678.054 318.233 678.361 317.961 678.355L315.527 678.304C315.256 678.299 315.039 677.982 315.043 677.597L315.043 677.55C315.047 677.165 315.271 676.857 315.542 676.863Z" fill="#573240"/>
<path d="M321.229 681.191L323.663 681.242C323.934 681.248 324.151 681.565 324.147 681.949L324.147 681.997C324.143 682.382 323.919 682.689 323.648 682.683L321.214 682.632C320.942 682.627 320.725 682.31 320.729 681.925L320.73 681.878C320.734 681.493 320.957 681.186 321.229 681.191Z" fill="#FF6E00"/>
<path d="M338.803 645.709L341.16 644.844C341.423 644.747 341.691 644.971 341.759 645.344L341.767 645.39C341.836 645.762 341.678 646.143 341.415 646.239L339.058 647.105C338.795 647.201 338.527 646.977 338.459 646.605L338.45 646.559C338.382 646.186 338.54 645.806 338.803 645.709Z" fill="#FF6E00"/>
<path d="M330.54 649.661L332.897 648.796C333.16 648.699 333.428 648.923 333.496 649.296L333.504 649.342C333.573 649.714 333.415 650.095 333.152 650.191L330.795 651.056C330.532 651.153 330.264 650.929 330.196 650.557L330.188 650.511C330.119 650.138 330.277 649.758 330.54 649.661Z" fill="#FF6E00"/>
<path d="M326.898 684.992L329.254 684.126C329.517 684.03 329.785 684.253 329.854 684.626L329.862 684.672C329.93 685.044 329.772 685.425 329.509 685.521L327.153 686.387C326.89 686.483 326.622 686.26 326.554 685.887L326.545 685.841C326.477 685.468 326.635 685.088 326.898 684.992Z" fill="white"/>
<path d="M335.049 654.307L336.73 656.801C336.918 657.079 336.911 657.52 336.714 657.786L336.69 657.819C336.494 658.085 336.182 658.075 335.995 657.797L334.313 655.302C334.126 655.024 334.133 654.583 334.329 654.317L334.353 654.284C334.55 654.018 334.861 654.028 335.049 654.307Z" fill="#F1B104"/>
<path d="M334.97 668.294L335.044 671.742C335.052 672.127 334.839 672.448 334.567 672.46L334.534 672.461C334.262 672.473 334.036 672.171 334.027 671.786L333.954 668.338C333.945 667.953 334.159 667.632 334.43 667.62L334.464 667.619C334.735 667.607 334.962 667.91 334.97 668.294Z" fill="#FF6E00"/>
<path d="M329.532 676.059L331.214 678.553C331.402 678.831 331.394 679.272 331.198 679.538L331.174 679.571C330.977 679.837 330.666 679.827 330.478 679.548L328.797 677.054C328.609 676.776 328.616 676.335 328.813 676.069L328.837 676.036C329.033 675.77 329.345 675.781 329.532 676.059Z" fill="#F1B104"/>
<path d="M295.735 666.85L296.807 669.947C296.927 670.292 296.826 670.71 296.582 670.879L296.552 670.9C296.308 671.07 296.013 670.927 295.894 670.582L294.822 667.484C294.702 667.139 294.803 666.721 295.047 666.552L295.077 666.531C295.321 666.361 295.616 666.504 295.735 666.85Z" fill="white"/>
<path d="M303.429 657.232L304.501 660.329C304.62 660.675 304.519 661.092 304.276 661.262L304.245 661.283C304.002 661.452 303.707 661.309 303.587 660.964L302.515 657.867C302.396 657.521 302.497 657.104 302.74 656.934L302.771 656.913C303.014 656.744 303.309 656.886 303.429 657.232Z" fill="#573240"/>
<path d="M306.722 685.081L308.796 686.889C309.027 687.09 309.099 687.52 308.957 687.847L308.939 687.888C308.797 688.216 308.494 688.318 308.263 688.116L306.189 686.308C305.958 686.107 305.886 685.677 306.028 685.35L306.046 685.309C306.188 684.981 306.491 684.879 306.722 685.081Z" fill="white"/>
<path d="M295.941 642.161L298.357 642.578C298.627 642.625 298.819 642.972 298.786 643.354L298.782 643.401C298.749 643.783 298.504 644.055 298.234 644.009L295.818 643.591C295.548 643.545 295.356 643.197 295.389 642.815L295.393 642.768C295.426 642.386 295.671 642.114 295.941 642.161Z" fill="white"/>
<path d="M305.911 667.733L307.985 669.54C308.216 669.742 308.288 670.171 308.146 670.499L308.128 670.54C307.986 670.867 307.683 670.969 307.452 670.768L305.378 668.96C305.147 668.758 305.075 668.329 305.217 668.001L305.235 667.961C305.377 667.633 305.68 667.531 305.911 667.733Z" fill="white"/>
<path d="M302.131 678.551L300.979 681.591C300.851 681.93 300.553 682.057 300.314 681.875L300.284 681.853C300.045 681.671 299.955 681.248 300.083 680.909L301.234 677.87C301.363 677.531 301.661 677.403 301.9 677.585L301.93 677.608C302.169 677.79 302.259 678.212 302.131 678.551Z" fill="#573240"/>
<path d="M300.264 648.747L299.113 651.787C298.984 652.126 298.686 652.253 298.447 652.071L298.417 652.049C298.178 651.867 298.088 651.444 298.217 651.105L299.368 648.066C299.496 647.727 299.794 647.599 300.033 647.781L300.063 647.804C300.302 647.986 300.392 648.408 300.264 648.747Z" fill="#FF6E00"/>
<path d="M314.42 687.176L313.879 690.539C313.818 690.914 313.555 691.149 313.29 691.064L313.257 691.053C312.992 690.967 312.827 690.594 312.887 690.219L313.428 686.855C313.488 686.48 313.752 686.245 314.017 686.331L314.05 686.342C314.314 686.427 314.48 686.8 314.42 687.176Z" fill="#FF6E00"/>
<path d="M294.599 653.17L294.057 656.533C293.997 656.909 293.733 657.143 293.469 657.058L293.436 657.047C293.171 656.962 293.005 656.588 293.066 656.213L293.607 652.85C293.667 652.474 293.931 652.24 294.196 652.325L294.228 652.336C294.493 652.422 294.659 652.795 294.599 653.17Z" fill="white"/>
<path d="M310.758 678.499L308.422 679.468C308.161 679.576 307.888 679.364 307.812 678.995L307.802 678.949C307.726 678.58 307.876 678.193 308.136 678.085L310.472 677.115C310.733 677.007 311.006 677.219 311.083 677.588L311.092 677.634C311.168 678.003 311.019 678.39 310.758 678.499Z" fill="#F1B104"/>
<path d="M302.028 671.969L299.834 670.476C299.589 670.309 299.485 669.893 299.603 669.546L299.618 669.503C299.735 669.156 300.029 669.01 300.274 669.177L302.468 670.669C302.713 670.836 302.816 671.252 302.699 671.599L302.684 671.642C302.567 671.989 302.273 672.135 302.028 671.969Z" fill="#FF6E00"/>
<path d="M299.85 659.971L296.57 661.331L296.856 662.714L300.136 661.354L299.85 659.971Z" fill="#F1B104"/>
<path d="M258.348 596.325C241.837 596.325 228.451 615.667 228.451 639.525C228.451 663.384 241.837 682.726 258.348 682.726C274.86 682.726 288.245 663.384 288.245 639.525C288.245 615.667 274.86 596.325 258.348 596.325ZM258.348 652.937C253.346 652.937 249.29 647.078 249.29 639.848C249.29 632.618 253.346 626.757 258.348 626.757C263.352 626.757 267.408 632.619 267.408 639.848C267.408 647.077 263.352 652.937 258.348 652.937Z" fill="#573240"/>
<path d="M254.297 596.325C237.786 596.325 224.401 615.667 224.401 639.525C224.401 663.384 237.786 682.726 254.297 682.726C270.809 682.726 284.194 663.384 284.194 639.525C284.194 615.667 270.809 596.325 254.297 596.325ZM254.297 654.39C248.74 654.39 244.234 647.88 244.234 639.848C244.234 631.816 248.74 625.305 254.297 625.305C259.856 625.305 264.362 631.816 264.362 639.848C264.362 647.88 259.856 654.39 254.297 654.39Z" fill="#FF6E00"/>
<path d="M258.271 605.224H255.602C255.33 605.224 255.11 604.913 255.11 604.528V604.381C255.11 603.996 255.33 603.684 255.602 603.684H258.271C258.542 603.684 258.763 603.996 258.763 604.381V604.528C258.762 604.912 258.542 605.224 258.271 605.224Z" fill="white"/>
<path d="M274.037 637.15H271.368C271.096 637.15 270.876 636.838 270.876 636.453V636.307C270.876 635.922 271.096 635.61 271.368 635.61H274.037C274.308 635.61 274.528 635.922 274.528 636.307V636.453C274.528 636.838 274.308 637.15 274.037 637.15Z" fill="#A9D8D5"/>
<path d="M280.058 632.488L277.496 633.548C277.235 633.656 276.962 633.444 276.886 633.075L276.857 632.934C276.781 632.565 276.931 632.178 277.191 632.07L279.753 631.01C280.013 630.902 280.287 631.114 280.363 631.483L280.392 631.623C280.468 631.993 280.318 632.38 280.058 632.488Z" fill="#573240"/>
<path d="M240.71 635.773H238.041C237.77 635.773 237.55 635.461 237.55 635.077V634.93C237.55 634.545 237.77 634.233 238.041 634.233H240.71C240.982 634.233 241.202 634.545 241.202 634.93V635.077C241.202 635.461 240.982 635.773 240.71 635.773Z" fill="white"/>
<path d="M269.648 631.114L267.081 630.079C266.819 629.974 266.668 629.589 266.742 629.219L266.77 629.078C266.845 628.708 267.117 628.493 267.378 628.598L269.945 629.633C270.206 629.738 270.358 630.123 270.283 630.494L270.255 630.634C270.181 631.005 269.909 631.219 269.648 631.114Z" fill="#F1B104"/>
<path d="M232.647 625.305H229.978C229.706 625.305 229.486 624.993 229.486 624.608V624.462C229.486 624.077 229.706 623.765 229.978 623.765H232.647C232.918 623.765 233.138 624.077 233.138 624.462V624.608C233.138 624.993 232.918 625.305 232.647 625.305Z" fill="#F1B104"/>
<path d="M261.163 619.909H258.494C258.223 619.909 258.002 619.597 258.002 619.213V619.066C258.002 618.681 258.223 618.369 258.494 618.369H261.163C261.435 618.369 261.655 618.681 261.655 619.066V619.213C261.655 619.597 261.434 619.909 261.163 619.909Z" fill="#573240"/>
<path d="M273.948 615.992L271.636 614.101C271.401 613.909 271.321 613.483 271.456 613.149L271.508 613.022C271.644 612.689 271.944 612.575 272.18 612.767L274.491 614.658C274.726 614.85 274.807 615.277 274.671 615.61L274.619 615.737C274.484 616.07 274.183 616.184 273.948 615.992Z" fill="#F6ACC1"/>
<path d="M242.166 611.973L239.91 613.992C239.68 614.198 239.376 614.1 239.231 613.775L239.176 613.651C239.031 613.326 239.1 612.895 239.329 612.69L241.586 610.671C241.815 610.465 242.119 610.563 242.264 610.888L242.319 611.012C242.464 611.337 242.396 611.768 242.166 611.973Z" fill="white"/>
<path d="M275.87 621.819L274.414 624.988C274.266 625.311 273.961 625.402 273.734 625.192L273.647 625.112C273.42 624.902 273.355 624.47 273.503 624.148L274.96 620.979C275.108 620.657 275.413 620.565 275.64 620.775L275.727 620.855C275.954 621.065 276.019 621.497 275.87 621.819Z" fill="white"/>
<path d="M253.936 620.114L251.679 622.133C251.45 622.339 251.146 622.241 251.001 621.916L250.946 621.792C250.801 621.467 250.869 621.036 251.099 620.831L253.356 618.812C253.585 618.606 253.889 618.704 254.034 619.029L254.089 619.153C254.234 619.478 254.165 619.909 253.936 620.114Z" fill="white"/>
<path d="M246.474 619.482L245.551 615.933C245.457 615.572 245.588 615.172 245.843 615.038L245.94 614.988C246.194 614.855 246.477 615.04 246.571 615.401L247.494 618.949C247.587 619.31 247.457 619.711 247.202 619.844L247.105 619.894C246.85 620.028 246.568 619.843 246.474 619.482Z" fill="#F1B104"/>
<path d="M247.325 608.452L245.769 605.38C245.611 605.067 245.662 604.632 245.882 604.407L245.966 604.322C246.187 604.098 246.494 604.169 246.653 604.482L248.208 607.555C248.367 607.867 248.316 608.303 248.095 608.527L248.011 608.612C247.791 608.837 247.483 608.765 247.325 608.452Z" fill="#573240"/>
<path d="M269.962 621.895L268.406 618.822C268.248 618.509 268.298 618.074 268.519 617.85L268.603 617.764C268.824 617.54 269.131 617.611 269.289 617.924L270.845 620.997C271.003 621.31 270.953 621.745 270.732 621.969L270.648 622.055C270.427 622.279 270.12 622.207 269.962 621.895Z" fill="#573240"/>
<path d="M235.711 619.875L233.636 617.496C233.424 617.254 233.392 616.816 233.562 616.516L233.627 616.403C233.798 616.103 234.108 616.057 234.319 616.299L236.394 618.677C236.605 618.919 236.638 619.358 236.467 619.657L236.402 619.771C236.231 620.07 235.922 620.116 235.711 619.875Z" fill="#A9D8D5"/>
<path d="M267.089 610.613L265.014 608.235C264.803 607.993 264.77 607.554 264.941 607.255L265.006 607.141C265.177 606.842 265.486 606.795 265.698 607.037L267.773 609.415C267.984 609.657 268.016 610.096 267.846 610.395L267.781 610.509C267.61 610.808 267.3 610.855 267.089 610.613Z" fill="#F1B104"/>
<path d="M231.152 636.103L229.5 633.133C229.332 632.831 229.369 632.393 229.582 632.155L229.663 632.064C229.877 631.826 230.186 631.878 230.354 632.18L232.006 635.15C232.174 635.453 232.137 635.891 231.924 636.129L231.843 636.22C231.629 636.458 231.32 636.406 231.152 636.103Z" fill="#A9D8D5"/>
<path d="M240.427 624.288L240.881 620.562C240.927 620.183 241.182 619.928 241.449 619.994L241.551 620.019C241.819 620.084 241.998 620.445 241.952 620.824L241.498 624.55C241.451 624.93 241.197 625.184 240.929 625.118L240.828 625.093C240.56 625.028 240.381 624.667 240.427 624.288Z" fill="#F6ACC1"/>
<path d="M250.728 612.897L252.824 610.556C253.038 610.318 253.347 610.37 253.515 610.673L253.579 610.788C253.747 611.09 253.71 611.528 253.497 611.766L251.401 614.107C251.188 614.345 250.878 614.293 250.71 613.991L250.646 613.876C250.478 613.573 250.515 613.135 250.728 612.897Z" fill="#A9D8D5"/>
<path d="M234.422 630.125L236.518 627.784C236.731 627.546 237.04 627.598 237.208 627.9L237.272 628.015C237.44 628.317 237.404 628.756 237.191 628.994L235.094 631.334C234.881 631.572 234.572 631.521 234.404 631.218L234.34 631.103C234.172 630.801 234.208 630.363 234.422 630.125Z" fill="#573240"/>
<path d="M259.968 613.102L260.422 609.375C260.468 608.996 260.723 608.742 260.991 608.807L261.092 608.832C261.36 608.898 261.539 609.258 261.493 609.637L261.039 613.364C260.993 613.743 260.738 613.997 260.471 613.932L260.369 613.907C260.101 613.841 259.922 613.481 259.968 613.102Z" fill="#F6ACC1"/>
<path d="M263.115 624.655L264.891 621.833C265.072 621.546 265.383 621.521 265.586 621.777L265.663 621.875C265.865 622.131 265.883 622.571 265.702 622.859L263.926 625.681C263.745 625.968 263.434 625.993 263.232 625.737L263.155 625.639C262.952 625.383 262.934 624.942 263.115 624.655Z" fill="#A9D8D5"/>
<path d="M250.742 674.514L253.41 674.572C253.681 674.578 253.898 674.894 253.894 675.279L253.893 675.425C253.888 675.81 253.665 676.117 253.393 676.111L250.725 676.054C250.454 676.048 250.237 675.731 250.241 675.346L250.242 675.2C250.247 674.815 250.47 674.508 250.742 674.514Z" fill="white"/>
<path d="M235.321 642.251L237.989 642.309C238.261 642.315 238.478 642.632 238.474 643.016L238.472 643.163C238.468 643.547 238.244 643.854 237.973 643.849L235.304 643.791C235.033 643.785 234.816 643.469 234.82 643.084L234.822 642.937C234.826 642.553 235.049 642.245 235.321 642.251Z" fill="#A9D8D5"/>
<path d="M229.251 646.783L231.823 645.778C232.085 645.676 232.356 645.893 232.428 646.264L232.456 646.406C232.528 646.777 232.374 647.16 232.112 647.263L229.54 648.268C229.278 648.37 229.007 648.152 228.935 647.781L228.907 647.64C228.835 647.269 228.989 646.885 229.251 646.783Z" fill="#573240"/>
<path d="M268.629 644.348L271.297 644.406C271.569 644.412 271.786 644.728 271.781 645.113L271.78 645.26C271.776 645.644 271.552 645.952 271.281 645.946L268.612 645.888C268.341 645.882 268.124 645.565 268.128 645.181L268.13 645.034C268.134 644.65 268.357 644.342 268.629 644.348Z" fill="white"/>
<path d="M239.645 648.381L242.2 649.471C242.46 649.582 242.608 649.971 242.529 650.339L242.5 650.48C242.421 650.848 242.147 651.057 241.887 650.946L239.332 649.856C239.072 649.745 238.924 649.357 239.002 648.988L239.032 648.848C239.111 648.479 239.385 648.271 239.645 648.381Z" fill="#F1B104"/>
<path d="M276.58 654.99L279.248 655.047C279.52 655.053 279.736 655.37 279.732 655.755L279.731 655.901C279.726 656.286 279.503 656.593 279.231 656.587L276.563 656.53C276.292 656.524 276.075 656.207 276.079 655.822L276.081 655.676C276.085 655.291 276.308 654.984 276.58 654.99Z" fill="#F1B104"/>
<path d="M248.008 659.768L250.676 659.826C250.948 659.832 251.165 660.148 251.16 660.533L251.159 660.68C251.155 661.064 250.931 661.371 250.66 661.366L247.991 661.308C247.72 661.302 247.503 660.985 247.507 660.601L247.509 660.454C247.513 660.07 247.736 659.762 248.008 659.768Z" fill="#573240"/>
<path d="M235.182 663.409L237.473 665.35C237.706 665.547 237.782 665.975 237.643 666.305L237.59 666.431C237.45 666.761 237.148 666.869 236.915 666.671L234.625 664.731C234.392 664.533 234.316 664.105 234.455 663.775L234.508 663.649C234.647 663.319 234.949 663.212 235.182 663.409Z" fill="#F6ACC1"/>
<path d="M266.917 668.114L269.195 666.144C269.427 665.944 269.729 666.047 269.871 666.376L269.925 666.501C270.066 666.829 269.993 667.258 269.761 667.458L267.483 669.428C267.251 669.629 266.949 669.525 266.807 669.197L266.753 669.072C266.612 668.743 266.685 668.315 266.917 668.114Z" fill="white"/>
<path d="M233.323 657.541L234.813 654.404C234.964 654.084 235.27 654 235.495 654.215L235.581 654.296C235.806 654.511 235.866 654.944 235.714 655.263L234.224 658.4C234.073 658.72 233.767 658.804 233.542 658.589L233.456 658.508C233.231 658.293 233.171 657.86 233.323 657.541Z" fill="white"/>
<path d="M255.236 659.72L257.514 657.75C257.746 657.549 258.049 657.653 258.19 657.981L258.244 658.106C258.386 658.435 258.312 658.864 258.081 659.064L255.802 661.034C255.571 661.235 255.268 661.131 255.127 660.802L255.073 660.677C254.931 660.349 255.004 659.92 255.236 659.72Z" fill="white"/>
<path d="M262.691 660.513L263.575 664.081C263.665 664.444 263.53 664.842 263.274 664.97L263.176 665.018C262.92 665.146 262.639 664.955 262.549 664.592L261.665 661.024C261.575 660.661 261.71 660.263 261.966 660.135L262.064 660.087C262.32 659.959 262.601 660.15 262.691 660.513Z" fill="#F1B104"/>
<path d="M261.721 671.523L263.243 674.629C263.398 674.945 263.343 675.379 263.12 675.599L263.035 675.682C262.812 675.902 262.505 675.824 262.35 675.507L260.828 672.402C260.673 672.085 260.728 671.651 260.951 671.432L261.036 671.348C261.259 671.129 261.566 671.207 261.721 671.523Z" fill="#573240"/>
<path d="M239.231 657.593L240.754 660.699C240.909 661.015 240.853 661.449 240.63 661.669L240.545 661.752C240.322 661.972 240.016 661.894 239.861 661.577L238.339 658.472C238.184 658.155 238.239 657.721 238.462 657.502L238.547 657.418C238.77 657.199 239.076 657.277 239.231 657.593Z" fill="#573240"/>
<path d="M273.457 660.353L275.506 662.776C275.715 663.023 275.743 663.462 275.569 663.757L275.502 663.87C275.328 664.165 275.018 664.205 274.81 663.958L272.761 661.536C272.552 661.289 272.524 660.85 272.698 660.554L272.764 660.442C272.938 660.146 273.248 660.107 273.457 660.353Z" fill="#A9D8D5"/>
<path d="M241.982 668.936L244.032 671.358C244.24 671.605 244.268 672.044 244.094 672.34L244.028 672.452C243.854 672.748 243.544 672.787 243.335 672.541L241.286 670.118C241.078 669.871 241.05 669.432 241.224 669.137L241.29 669.024C241.464 668.729 241.774 668.689 241.982 668.936Z" fill="#F1B104"/>
<path d="M278.19 644.225L279.809 647.23C279.974 647.536 279.933 647.973 279.717 648.207L279.635 648.296C279.419 648.529 279.11 648.471 278.945 648.165L277.326 645.159C277.161 644.853 277.202 644.416 277.418 644.183L277.5 644.094C277.716 643.86 278.025 643.919 278.19 644.225Z" fill="#A9D8D5"/>
<path d="M268.789 655.838L268.294 659.554C268.244 659.932 267.987 660.181 267.72 660.11L267.618 660.083C267.351 660.012 267.176 659.647 267.226 659.269L267.721 655.553C267.771 655.175 268.028 654.926 268.295 654.997L268.397 655.024C268.664 655.096 268.839 655.46 268.789 655.838Z" fill="#F6ACC1"/>
<path d="M258.366 667.005L256.245 669.3C256.029 669.534 255.72 669.475 255.555 669.169L255.493 669.053C255.328 668.747 255.369 668.31 255.585 668.076L257.706 665.781C257.922 665.548 258.231 665.606 258.395 665.912L258.458 666.029C258.623 666.334 258.582 666.772 258.366 667.005Z" fill="#A9D8D5"/>
<path d="M274.856 650.132L272.735 652.427C272.519 652.661 272.21 652.602 272.045 652.296L271.983 652.18C271.818 651.874 271.859 651.437 272.075 651.203L274.196 648.908C274.412 648.675 274.721 648.733 274.885 649.039L274.948 649.156C275.113 649.461 275.072 649.899 274.856 650.132Z" fill="#573240"/>
<path d="M249.13 666.601L248.635 670.317C248.585 670.695 248.328 670.944 248.061 670.873L247.959 670.846C247.692 670.774 247.517 670.41 247.567 670.032L248.061 666.316C248.112 665.938 248.369 665.689 248.636 665.76L248.737 665.787C249.004 665.859 249.18 666.223 249.13 666.601Z" fill="#F6ACC1"/>
<path d="M246.107 654.981L244.301 657.764C244.117 658.047 243.806 658.066 243.606 657.805L243.53 657.706C243.33 657.446 243.317 657.005 243.501 656.722L245.307 653.938C245.491 653.655 245.802 653.637 246.002 653.897L246.078 653.996C246.278 654.257 246.291 654.698 246.107 654.981Z" fill="#A9D8D5"/>
<path d="M348.602 559.276L348.522 560.256H256.934L257.014 559.276H348.602Z" fill="#FDE5E3"/>
<path d="M346.989 571.168C346.865 571.504 346.728 571.83 346.584 572.148H258.11C257.964 571.83 257.828 571.502 257.703 571.168H346.989Z" fill="#FDE5E3"/>
<path d="M348.119 565.222L348.039 566.202H256.653C256.632 565.879 256.619 565.552 256.615 565.222H348.119Z" fill="#FDE5E3"/>
<path d="M357.874 640.269H320.397V699.727H357.874V640.269Z" fill="#F6ACC1"/>
<path d="M320.397 640.269H218.137V699.727H320.397V640.269Z" fill="#FCD4D0"/>
<path d="M320.442 645.724H218.137V646.704H320.442V645.724Z" fill="#FDE5E3"/>
<path d="M320.397 651.67H218.137V652.65H320.397V651.67Z" fill="#FDE5E3"/>
<path d="M320.397 657.616H218.137V658.596H320.397V657.616Z" fill="#FDE5E3"/>
<path d="M320.397 663.562H218.137V664.542H320.397V663.562Z" fill="#FDE5E3"/>
<path d="M320.397 669.507H218.137V670.487H320.397V669.507Z" fill="#FDE5E3"/>
<path d="M320.397 675.453H218.137V676.433H320.397V675.453Z" fill="#FDE5E3"/>
<path d="M320.397 687.345H218.137V688.325H320.397V687.345Z" fill="#FDE5E3"/>
<path d="M320.397 681.399H218.137V682.379H320.397V681.399Z" fill="#FDE5E3"/>
<path d="M320.397 693.291H218.137V694.271H320.397V693.291Z" fill="#FDE5E3"/>
<path d="M357.874 645.724H320.443V646.704H357.874V645.724Z" fill="#FABFD6"/>
<path d="M357.874 651.67H320.397V652.65H357.874V651.67Z" fill="#FABFD6"/>
<path d="M357.874 657.616H320.397V658.596H357.874V657.616Z" fill="#FABFD6"/>
<path d="M357.874 663.562H320.397V664.542H357.874V663.562Z" fill="#FABFD6"/>
<path d="M357.874 669.507H320.397V670.487H357.874V669.507Z" fill="#FABFD6"/>
<path d="M357.874 675.453H320.397V676.433H357.874V675.453Z" fill="#FABFD6"/>
<path d="M357.874 687.345H320.397V688.325H357.874V687.345Z" fill="#FABFD6"/>
<path d="M357.874 681.399H320.397V682.379H357.874V681.399Z" fill="#FABFD6"/>
<path d="M357.874 693.291H320.397V694.271H357.874V693.291Z" fill="#FABFD6"/>
<path d="M396.482 589.916L387.575 699.726H343.334L334.428 589.916H396.482Z" fill="white"/>
<path d="M396.482 589.916L387.575 699.726H377.937L386.503 594.116H334.768L334.427 589.916H396.482Z" fill="#E0F1F0"/>
<path d="M401.285 589.916H329.625L330.193 585.426C330.436 583.508 331.613 582.111 332.989 582.111H334.218L335.12 577.237C335.752 573.814 337.936 571.427 340.433 571.427H390.476C392.974 571.427 395.157 573.814 395.79 577.237L396.691 582.111H397.921C399.296 582.111 400.474 583.508 400.716 585.426L401.285 589.916Z" fill="#573240"/>
<path d="M343.334 699.726H387.575" stroke="#573240" stroke-width="5" stroke-miterlimit="10" stroke-linecap="round"/>
<path d="M363.765 658.406C371.431 658.406 377.646 649.004 377.646 637.406C377.646 625.808 371.431 616.406 363.765 616.406C356.098 616.406 349.883 625.808 349.883 637.406C349.883 649.004 356.098 658.406 363.765 658.406Z" fill="#A9D8D5"/>
<path d="M365.932 631.439L360.967 642.241C360.705 642.812 360.125 642.848 359.828 642.313C358.58 640.062 358.547 636.501 359.898 633.562C361.248 630.623 363.56 629.226 365.517 629.933C365.983 630.101 366.194 630.868 365.932 631.439Z" fill="#573240"/>
<path d="M367.751 640.808C366.414 643.718 364.134 645.116 362.19 644.459C361.72 644.299 361.504 643.525 361.768 642.95L366.713 632.189C366.977 631.615 367.565 631.581 367.858 632.126C369.068 634.379 369.088 637.898 367.751 640.808Z" fill="#573240"/>
<path d="M240.476 867V845.672H247.448C249.763 845.672 251.501 846.15 252.663 847.107C253.835 848.064 254.421 849.48 254.421 851.355C254.421 852.352 254.138 853.235 253.571 854.007C253.005 854.769 252.233 855.359 251.257 855.779C252.409 856.102 253.317 856.717 253.981 857.625C254.655 858.523 254.992 859.598 254.992 860.848C254.992 862.762 254.372 864.266 253.132 865.359C251.892 866.453 250.139 867 247.873 867H240.476ZM243.288 857.024V864.7H247.932C249.24 864.7 250.271 864.363 251.022 863.689C251.784 863.006 252.165 862.068 252.165 860.877C252.165 858.309 250.769 857.024 247.976 857.024H243.288ZM243.288 854.769H247.536C248.767 854.769 249.748 854.461 250.48 853.846C251.223 853.23 251.594 852.396 251.594 851.341C251.594 850.169 251.252 849.319 250.568 848.792C249.885 848.255 248.845 847.986 247.448 847.986H243.288V854.769ZM268.527 865.433C267.473 866.673 265.925 867.293 263.884 867.293C262.194 867.293 260.905 866.805 260.017 865.828C259.138 864.842 258.693 863.387 258.684 861.463V851.15H261.394V861.39C261.394 863.792 262.37 864.993 264.323 864.993C266.394 864.993 267.771 864.222 268.454 862.679V851.15H271.164V867H268.586L268.527 865.433ZM280.48 863.03L284.172 851.15H287.072L280.7 869.446C279.714 872.083 278.146 873.401 275.998 873.401L275.485 873.357L274.475 873.167V870.97L275.207 871.028C276.125 871.028 276.838 870.843 277.346 870.472C277.863 870.101 278.288 869.422 278.62 868.436L279.221 866.824L273.566 851.15H276.525L280.48 863.03ZM298.278 867V853.245H295.773V851.15H298.278V849.524C298.278 847.825 298.732 846.512 299.641 845.584C300.549 844.656 301.833 844.192 303.493 844.192C304.118 844.192 304.738 844.275 305.354 844.441L305.207 846.639C304.748 846.551 304.26 846.507 303.742 846.507C302.863 846.507 302.185 846.766 301.706 847.283C301.228 847.791 300.988 848.523 300.988 849.48V851.15H304.372V853.245H300.988V867H298.278ZM306.657 858.929C306.657 857.376 306.96 855.979 307.565 854.739C308.181 853.499 309.03 852.542 310.114 851.868C311.208 851.194 312.453 850.857 313.85 850.857C316.008 850.857 317.751 851.604 319.079 853.099C320.417 854.593 321.086 856.58 321.086 859.061V859.251C321.086 860.794 320.788 862.181 320.192 863.411C319.606 864.632 318.762 865.584 317.658 866.268C316.564 866.951 315.305 867.293 313.879 867.293C311.73 867.293 309.987 866.546 308.649 865.052C307.321 863.558 306.657 861.58 306.657 859.119V858.929ZM309.382 859.251C309.382 861.009 309.787 862.42 310.598 863.484C311.418 864.549 312.512 865.081 313.879 865.081C315.256 865.081 316.35 864.544 317.16 863.47C317.971 862.386 318.376 860.872 318.376 858.929C318.376 857.19 317.961 855.784 317.131 854.71C316.311 853.626 315.217 853.084 313.85 853.084C312.512 853.084 311.433 853.616 310.612 854.681C309.792 855.745 309.382 857.269 309.382 859.251ZM323.767 858.929C323.767 857.376 324.069 855.979 324.675 854.739C325.29 853.499 326.14 852.542 327.224 851.868C328.317 851.194 329.562 850.857 330.959 850.857C333.117 850.857 334.86 851.604 336.188 853.099C337.526 854.593 338.195 856.58 338.195 859.061V859.251C338.195 860.794 337.897 862.181 337.302 863.411C336.716 864.632 335.871 865.584 334.768 866.268C333.674 866.951 332.414 867.293 330.988 867.293C328.84 867.293 327.097 866.546 325.759 865.052C324.431 863.558 323.767 861.58 323.767 859.119V858.929ZM326.491 859.251C326.491 861.009 326.896 862.42 327.707 863.484C328.527 864.549 329.621 865.081 330.988 865.081C332.365 865.081 333.459 864.544 334.27 863.47C335.08 862.386 335.485 860.872 335.485 858.929C335.485 857.19 335.07 855.784 334.24 854.71C333.42 853.626 332.326 853.084 330.959 853.084C329.621 853.084 328.542 853.616 327.722 854.681C326.901 855.745 326.491 857.269 326.491 859.251ZM340.935 858.943C340.935 856.512 341.511 854.559 342.663 853.084C343.815 851.6 345.324 850.857 347.189 850.857C349.045 850.857 350.515 851.492 351.599 852.762V844.5H354.309V867H351.818L351.687 865.301C350.603 866.629 349.094 867.293 347.16 867.293C345.324 867.293 343.825 866.541 342.663 865.037C341.511 863.533 340.935 861.57 340.935 859.148V858.943ZM343.645 859.251C343.645 861.048 344.016 862.454 344.758 863.47C345.5 864.485 346.525 864.993 347.834 864.993C349.553 864.993 350.808 864.222 351.599 862.679V855.398C350.788 853.904 349.543 853.157 347.863 853.157C346.535 853.157 345.5 853.67 344.758 854.695C344.016 855.721 343.645 857.239 343.645 859.251ZM365.251 858.929C365.251 857.376 365.554 855.979 366.159 854.739C366.774 853.499 367.624 852.542 368.708 851.868C369.802 851.194 371.047 850.857 372.443 850.857C374.602 850.857 376.345 851.604 377.673 853.099C379.011 854.593 379.68 856.58 379.68 859.061V859.251C379.68 860.794 379.382 862.181 378.786 863.411C378.2 864.632 377.355 865.584 376.252 866.268C375.158 866.951 373.898 867.293 372.473 867.293C370.324 867.293 368.581 866.546 367.243 865.052C365.915 863.558 365.251 861.58 365.251 859.119V858.929ZM367.976 859.251C367.976 861.009 368.381 862.42 369.191 863.484C370.012 864.549 371.105 865.081 372.473 865.081C373.85 865.081 374.943 864.544 375.754 863.47C376.564 862.386 376.97 860.872 376.97 858.929C376.97 857.19 376.555 855.784 375.725 854.71C374.904 853.626 373.811 853.084 372.443 853.084C371.105 853.084 370.026 853.616 369.206 854.681C368.386 855.745 367.976 857.269 367.976 859.251ZM385.642 851.15L385.729 853.143C386.94 851.619 388.522 850.857 390.476 850.857C393.825 850.857 395.515 852.747 395.544 856.526V867H392.834V856.512C392.824 855.369 392.561 854.524 392.043 853.978C391.535 853.431 390.739 853.157 389.655 853.157C388.776 853.157 388.005 853.392 387.341 853.86C386.677 854.329 386.159 854.944 385.788 855.706V867H383.078V851.15H385.642ZM402.575 867H399.865V844.5H402.575V867ZM409.87 867H407.16V851.15H409.87V867ZM406.94 846.946C406.94 846.507 407.072 846.136 407.336 845.833C407.609 845.53 408.01 845.379 408.537 845.379C409.064 845.379 409.465 845.53 409.738 845.833C410.012 846.136 410.148 846.507 410.148 846.946C410.148 847.386 410.012 847.752 409.738 848.045C409.465 848.338 409.064 848.484 408.537 848.484C408.01 848.484 407.609 848.338 407.336 848.045C407.072 847.752 406.94 847.386 406.94 846.946ZM416.784 851.15L416.872 853.143C418.083 851.619 419.665 850.857 421.618 850.857C424.968 850.857 426.657 852.747 426.687 856.526V867H423.977V856.512C423.967 855.369 423.703 854.524 423.186 853.978C422.678 853.431 421.882 853.157 420.798 853.157C419.919 853.157 419.147 853.392 418.483 853.86C417.819 854.329 417.302 854.944 416.931 855.706V867H414.221V851.15H416.784ZM437.351 867.293C435.202 867.293 433.454 866.59 432.106 865.184C430.759 863.768 430.085 861.878 430.085 859.515V859.017C430.085 857.444 430.383 856.043 430.979 854.812C431.584 853.572 432.424 852.605 433.498 851.912C434.582 851.209 435.754 850.857 437.014 850.857C439.074 850.857 440.676 851.536 441.818 852.894C442.961 854.251 443.532 856.194 443.532 858.724V859.852H432.795C432.834 861.414 433.288 862.679 434.157 863.646C435.036 864.603 436.149 865.081 437.497 865.081C438.454 865.081 439.265 864.886 439.929 864.495C440.593 864.104 441.174 863.587 441.672 862.942L443.327 864.231C441.999 866.272 440.007 867.293 437.351 867.293ZM437.014 853.084C435.92 853.084 435.002 853.484 434.26 854.285C433.518 855.076 433.059 856.189 432.883 857.625H440.822V857.42C440.744 856.043 440.373 854.979 439.709 854.227C439.045 853.465 438.146 853.084 437.014 853.084ZM468.156 863.265L471.203 851.15H473.913L469.299 867H467.102L463.249 854.988L459.499 867H457.302L452.702 851.15H455.397L458.518 863.016L462.209 851.15H464.392L468.156 863.265ZM479.626 867H476.916V851.15H479.626V867ZM476.696 846.946C476.696 846.507 476.828 846.136 477.092 845.833C477.365 845.53 477.766 845.379 478.293 845.379C478.82 845.379 479.221 845.53 479.494 845.833C479.768 846.136 479.904 846.507 479.904 846.946C479.904 847.386 479.768 847.752 479.494 848.045C479.221 848.338 478.82 848.484 478.293 848.484C477.766 848.484 477.365 848.338 477.092 848.045C476.828 847.752 476.696 847.386 476.696 846.946ZM487.653 847.312V851.15H490.612V853.245H487.653V863.074C487.653 863.709 487.785 864.188 488.049 864.51C488.312 864.822 488.762 864.979 489.396 864.979C489.709 864.979 490.139 864.92 490.686 864.803V867C489.973 867.195 489.279 867.293 488.605 867.293C487.395 867.293 486.481 866.927 485.866 866.194C485.251 865.462 484.943 864.422 484.943 863.074V853.245H482.058V851.15H484.943V847.312H487.653ZM496.501 853.069C497.702 851.595 499.265 850.857 501.188 850.857C504.538 850.857 506.228 852.747 506.257 856.526V867H503.547V856.512C503.537 855.369 503.273 854.524 502.756 853.978C502.248 853.431 501.452 853.157 500.368 853.157C499.489 853.157 498.718 853.392 498.054 853.86C497.39 854.329 496.872 854.944 496.501 855.706V867H493.791V844.5H496.501V853.069ZM524.333 867.293C522.185 867.293 520.437 866.59 519.089 865.184C517.741 863.768 517.067 861.878 517.067 859.515V859.017C517.067 857.444 517.365 856.043 517.961 854.812C518.566 853.572 519.406 852.605 520.48 851.912C521.564 851.209 522.736 850.857 523.996 850.857C526.057 850.857 527.658 851.536 528.801 852.894C529.943 854.251 530.515 856.194 530.515 858.724V859.852H519.777C519.816 861.414 520.271 862.679 521.14 863.646C522.019 864.603 523.132 865.081 524.479 865.081C525.437 865.081 526.247 864.886 526.911 864.495C527.575 864.104 528.156 863.587 528.654 862.942L530.31 864.231C528.981 866.272 526.989 867.293 524.333 867.293ZM523.996 853.084C522.902 853.084 521.984 853.484 521.242 854.285C520.5 855.076 520.041 856.189 519.865 857.625H527.805V857.42C527.727 856.043 527.355 854.979 526.691 854.227C526.027 853.465 525.129 853.084 523.996 853.084ZM543.449 867C543.293 866.688 543.166 866.131 543.068 865.33C541.809 866.639 540.305 867.293 538.557 867.293C536.994 867.293 535.71 866.854 534.704 865.975C533.708 865.086 533.21 863.963 533.21 862.605C533.21 860.955 533.835 859.676 535.085 858.768C536.345 857.85 538.112 857.391 540.388 857.391H543.024V856.146C543.024 855.198 542.741 854.446 542.175 853.89C541.608 853.323 540.773 853.04 539.67 853.04C538.703 853.04 537.893 853.284 537.238 853.772C536.584 854.261 536.257 854.852 536.257 855.545H533.532C533.532 854.754 533.811 853.992 534.367 853.26C534.934 852.518 535.695 851.932 536.652 851.502C537.619 851.072 538.679 850.857 539.831 850.857C541.657 850.857 543.088 851.316 544.123 852.234C545.158 853.143 545.695 854.397 545.734 855.999V863.294C545.734 864.749 545.92 865.906 546.291 866.766V867H543.449ZM538.952 864.935C539.802 864.935 540.607 864.715 541.369 864.275C542.131 863.836 542.683 863.265 543.024 862.562V859.31H540.9C537.58 859.31 535.92 860.281 535.92 862.225C535.92 863.074 536.203 863.738 536.77 864.217C537.336 864.695 538.063 864.935 538.952 864.935ZM559.211 862.796C559.211 862.063 558.933 861.497 558.376 861.097C557.829 860.687 556.867 860.335 555.49 860.042C554.123 859.749 553.034 859.397 552.224 858.987C551.423 858.577 550.827 858.089 550.437 857.522C550.056 856.956 549.865 856.282 549.865 855.501C549.865 854.202 550.412 853.104 551.506 852.205C552.609 851.307 554.016 850.857 555.725 850.857C557.521 850.857 558.977 851.321 560.09 852.249C561.213 853.177 561.774 854.363 561.774 855.809H559.05C559.05 855.066 558.732 854.427 558.098 853.89C557.473 853.353 556.682 853.084 555.725 853.084C554.738 853.084 553.967 853.299 553.41 853.729C552.854 854.158 552.575 854.72 552.575 855.413C552.575 856.067 552.834 856.561 553.352 856.893C553.869 857.225 554.802 857.542 556.149 857.845C557.507 858.147 558.605 858.509 559.445 858.929C560.285 859.349 560.905 859.856 561.306 860.452C561.716 861.038 561.921 861.756 561.921 862.605C561.921 864.021 561.354 865.159 560.222 866.019C559.089 866.868 557.619 867.293 555.812 867.293C554.543 867.293 553.42 867.068 552.443 866.619C551.467 866.17 550.7 865.545 550.144 864.744C549.597 863.934 549.323 863.06 549.323 862.122H552.033C552.082 863.03 552.443 863.753 553.117 864.29C553.801 864.817 554.699 865.081 555.812 865.081C556.838 865.081 557.658 864.876 558.273 864.466C558.898 864.046 559.211 863.489 559.211 862.796ZM572.028 867.293C569.88 867.293 568.132 866.59 566.784 865.184C565.437 863.768 564.763 861.878 564.763 859.515V859.017C564.763 857.444 565.061 856.043 565.656 854.812C566.262 853.572 567.102 852.605 568.176 851.912C569.26 851.209 570.432 850.857 571.691 850.857C573.752 850.857 575.354 851.536 576.496 852.894C577.639 854.251 578.21 856.194 578.21 858.724V859.852H567.473C567.512 861.414 567.966 862.679 568.835 863.646C569.714 864.603 570.827 865.081 572.175 865.081C573.132 865.081 573.942 864.886 574.606 864.495C575.271 864.104 575.852 863.587 576.35 862.942L578.005 864.231C576.677 866.272 574.685 867.293 572.028 867.293ZM571.691 853.084C570.598 853.084 569.68 853.484 568.938 854.285C568.195 855.076 567.736 856.189 567.561 857.625H575.5V857.42C575.422 856.043 575.051 854.979 574.387 854.227C573.723 853.465 572.824 853.084 571.691 853.084Z" fill="black"/>
<circle cx="415" cy="988" r="59" fill="black"/>
<path d="M411.857 966.282L413.938 963.791C414.82 962.736 416.244 962.736 417.116 963.791L435.339 985.593C436.22 986.647 436.22 988.353 435.339 989.396L417.116 1011.21C416.235 1012.26 414.81 1012.26 413.938 1011.21L411.857 1008.72C410.967 1007.65 410.986 1005.91 411.895 1004.87L423.19 991.988H396.25C395.003 991.988 394 990.788 394 989.295V985.705C394 984.212 395.003 983.012 396.25 983.012H423.19L411.895 970.131C410.976 969.087 410.957 967.348 411.857 966.282Z" fill="white"/>
<path d="M731.985 870.986C732.403 861.8 734.095 850.992 736.096 841.987C738.571 830.848 759.953 848.573 762.761 850.653C770.565 856.434 779.694 856.627 785.982 848.542C792.861 839.699 789.088 829.886 793.537 820.988C797.59 812.882 821.938 823.542 827.869 825.766C842.415 831.221 851.039 812.674 855.867 802.212C860.634 791.884 878.113 806.801 883.977 808.545C893.306 811.318 899.246 797.815 901.976 790.99" stroke="black" stroke-linecap="round" stroke-linejoin="round"/>
<path d="M100.019 443.009C100.019 420.345 101.549 398.002 102.019 375.457C102.161 368.629 100.784 365.501 108.13 364.124C118.978 362.09 129.092 383.573 136.017 377.012C144.802 368.689 144.017 358.912 144.017 347.458C144.017 339.764 140.839 324.149 144.35 317.127C147.275 311.276 162.754 317.279 168.015 317.016C177.825 316.525 178.015 306.358 178.015 299.016C178.015 289.896 175.929 269.018 188.903 269.018C193.774 269.018 198.7 269.205 203.569 269.018C211.496 268.713 217.057 252.057 219.901 246.13C224.882 235.755 226.84 234.607 240.9 236.242C254.126 237.78 269.151 242.8 281.565 235.464C292.003 229.296 294.043 218.293 301.341 210.021C309.075 201.256 326.569 189.882 338.006 187.022" stroke="black" stroke-linecap="round" stroke-linejoin="round"/>
<path d="M202.013 49.0299C256.11 58.8656 309.797 92.2645 344.006 135.025" stroke="black" stroke-linecap="round" stroke-linejoin="round"/>
<path d="M713.986 636.998C734.971 633.183 755.603 639.989 775.538 646.553C788.524 650.829 800.049 658.997 813.981 658.997" stroke="black" stroke-linecap="round" stroke-linejoin="round"/>
<path d="M785.982 670.996C808.278 686.141 829.348 701.801 849.979 718.994" stroke="black" stroke-linecap="round" stroke-linejoin="round"/>
</svg>
