<svg width="1456" height="511" viewBox="0 0 1456 511" fill="none" xmlns="http://www.w3.org/2000/svg">
<g clip-path="url(#clip0)">
<rect width="1456" height="511" fill="#FFAD58"/>
<path d="M1568.69 173.377C1554 187.28 1535.92 197.221 1515.81 202.457C1495.69 207.694 1474.05 208.09 1452.52 203.618C1430.98 199.145 1410.1 189.919 1391.43 176.628C1372.77 163.337 1356.8 146.326 1344.73 126.865C1332.65 107.404 1324.78 85.9967 1321.7 64.2427C1318.62 42.4887 1320.41 20.9505 1326.94 1.23739C1333.47 -18.4757 1344.57 -35.8538 1359.41 -49.5986C1374.25 -63.3433 1392.44 -73.0992 1412.63 -78.1373L1431.81 -25.2864C1419.22 -22.1441 1407.87 -16.0591 1398.61 -7.48621C1389.36 1.0867 1382.43 11.9259 1378.36 24.2214C1374.29 36.5169 1373.17 49.9507 1375.09 63.5192C1377.01 77.0877 1381.92 90.4399 1389.45 102.578C1396.98 114.716 1406.94 125.327 1418.58 133.617C1430.23 141.906 1443.25 147.661 1456.68 150.451C1470.12 153.24 1483.61 152.993 1496.16 149.727C1508.71 146.461 1519.98 140.26 1529.15 131.589L1568.69 173.377Z" fill="#0B6E4F"/>
<path d="M-136.172 418.806C-95.082 368.667 -39.4675 333.693 18.9887 321.231C77.445 308.768 134.193 319.787 177.313 351.973C220.433 384.159 246.568 435.007 250.228 493.835C253.888 552.664 234.788 614.894 196.941 667.453L24.6441 550.598L-136.172 418.806Z" fill="#8E1E1E"/>
<path d="M1266.87 338.662C1268.55 324.101 1284.81 316.236 1297.27 323.955L1499.72 449.361C1513.13 457.666 1512.1 477.498 1497.9 484.367L1268.12 595.533C1253.92 602.401 1237.73 590.901 1239.54 575.234L1266.87 338.662Z" fill="#162131"/>
</g>
<defs>
<clipPath id="clip0">
<rect width="1456" height="511" fill="white"/>
</clipPath>
</defs>
</svg>
